<mxfile host="app.diagrams.net" modified="2022-09-15T22:02:24.031Z" agent="5.0 (Windows NT 10.0; Win64; x64) AppleWebKit/537.36 (KHTML, like Gecko) Chrome/105.0.0.0 Safari/537.36" etag="q-AmFPvPxktGLgojZE-z" version="20.3.1" type="github">
  <diagram id="C5RBs43oDa-KdzZeNtuy" name="Page-1">
    <mxGraphModel dx="2074" dy="1846" grid="1" gridSize="10" guides="1" tooltips="1" connect="1" arrows="1" fold="1" page="1" pageScale="1" pageWidth="827" pageHeight="1169" math="0" shadow="0">
      <root>
        <mxCell id="WIyWlLk6GJQsqaUBKTNV-0" />
        <mxCell id="WIyWlLk6GJQsqaUBKTNV-1" parent="WIyWlLk6GJQsqaUBKTNV-0" />
        <mxCell id="KCbMlfm2_40u_jcb3s0b-30" value="" style="edgeStyle=orthogonalEdgeStyle;shape=flexArrow;rounded=0;orthogonalLoop=1;jettySize=auto;html=1;strokeWidth=1;fontFamily=Verdana;fontSize=13;width=10;endSize=5.21;" edge="1" parent="WIyWlLk6GJQsqaUBKTNV-1" source="KCbMlfm2_40u_jcb3s0b-0" target="KCbMlfm2_40u_jcb3s0b-1">
          <mxGeometry relative="1" as="geometry">
            <Array as="points">
              <mxPoint x="105" y="50" />
              <mxPoint x="105" y="50" />
            </Array>
          </mxGeometry>
        </mxCell>
        <mxCell id="KCbMlfm2_40u_jcb3s0b-0" value="START" style="ellipse;whiteSpace=wrap;html=1;fontFamily=Verdana;fontSize=13;" vertex="1" parent="WIyWlLk6GJQsqaUBKTNV-1">
          <mxGeometry x="40" y="-40" width="120" height="80" as="geometry" />
        </mxCell>
        <mxCell id="KCbMlfm2_40u_jcb3s0b-28" value="" style="edgeStyle=orthogonalEdgeStyle;shape=flexArrow;rounded=0;orthogonalLoop=1;jettySize=auto;html=1;fontFamily=Verdana;fontSize=13;strokeWidth=1;width=10;startWidth=20;endSize=4.61;" edge="1" parent="WIyWlLk6GJQsqaUBKTNV-1" source="KCbMlfm2_40u_jcb3s0b-1" target="KCbMlfm2_40u_jcb3s0b-2">
          <mxGeometry relative="1" as="geometry" />
        </mxCell>
        <mxCell id="KCbMlfm2_40u_jcb3s0b-1" value="INITIALIZE THE POPULATION OF &#39;N&#39; HOST NEST RANDOMLY&amp;nbsp;" style="rounded=0;whiteSpace=wrap;html=1;fontFamily=Verdana;fontSize=13;" vertex="1" parent="WIyWlLk6GJQsqaUBKTNV-1">
          <mxGeometry x="20" y="80" width="170" height="60" as="geometry" />
        </mxCell>
        <mxCell id="KCbMlfm2_40u_jcb3s0b-26" value="" style="edgeStyle=orthogonalEdgeStyle;shape=flexArrow;rounded=0;orthogonalLoop=1;jettySize=auto;html=1;fontFamily=Verdana;fontSize=13;strokeWidth=1;width=10;startWidth=20;entryX=0.5;entryY=0;entryDx=0;entryDy=0;endSize=5.21;" edge="1" parent="WIyWlLk6GJQsqaUBKTNV-1" source="KCbMlfm2_40u_jcb3s0b-2" target="KCbMlfm2_40u_jcb3s0b-4">
          <mxGeometry relative="1" as="geometry" />
        </mxCell>
        <mxCell id="KCbMlfm2_40u_jcb3s0b-2" value="EVALUATE THE FITNESS OF EACH NEST&amp;nbsp;&lt;br style=&quot;font-size: 13px;&quot;&gt;" style="rounded=0;whiteSpace=wrap;html=1;fontFamily=Verdana;fontSize=13;" vertex="1" parent="WIyWlLk6GJQsqaUBKTNV-1">
          <mxGeometry x="20" y="170" width="170" height="60" as="geometry" />
        </mxCell>
        <mxCell id="KCbMlfm2_40u_jcb3s0b-17" style="edgeStyle=orthogonalEdgeStyle;rounded=0;orthogonalLoop=1;jettySize=auto;html=1;fontFamily=Verdana;fontSize=13;entryX=1;entryY=0.5;entryDx=0;entryDy=0;verticalAlign=top;" edge="1" parent="WIyWlLk6GJQsqaUBKTNV-1" source="KCbMlfm2_40u_jcb3s0b-4" target="KCbMlfm2_40u_jcb3s0b-16">
          <mxGeometry relative="1" as="geometry">
            <mxPoint x="780" y="560" as="targetPoint" />
            <Array as="points">
              <mxPoint y="305" />
              <mxPoint y="600" />
              <mxPoint x="760" y="600" />
              <mxPoint x="760" y="385" />
            </Array>
          </mxGeometry>
        </mxCell>
        <mxCell id="KCbMlfm2_40u_jcb3s0b-21" value="" style="edgeStyle=orthogonalEdgeStyle;rounded=0;orthogonalLoop=1;jettySize=auto;html=1;fontFamily=Verdana;fontSize=13;shape=flexArrow;strokeWidth=1;width=10;startWidth=20;" edge="1" parent="WIyWlLk6GJQsqaUBKTNV-1" source="KCbMlfm2_40u_jcb3s0b-4" target="KCbMlfm2_40u_jcb3s0b-5">
          <mxGeometry relative="1" as="geometry" />
        </mxCell>
        <mxCell id="KCbMlfm2_40u_jcb3s0b-4" value="t &lt;br style=&quot;font-size: 13px;&quot;&gt;&amp;lt; MaxGen" style="rhombus;whiteSpace=wrap;html=1;fontFamily=Verdana;fontSize=13;" vertex="1" parent="WIyWlLk6GJQsqaUBKTNV-1">
          <mxGeometry x="20" y="260" width="170" height="90" as="geometry" />
        </mxCell>
        <mxCell id="KCbMlfm2_40u_jcb3s0b-22" value="" style="edgeStyle=orthogonalEdgeStyle;rounded=0;orthogonalLoop=1;jettySize=auto;html=1;fontFamily=Verdana;fontSize=13;shape=flexArrow;strokeWidth=1;width=10;startWidth=20;" edge="1" parent="WIyWlLk6GJQsqaUBKTNV-1" source="KCbMlfm2_40u_jcb3s0b-5" target="KCbMlfm2_40u_jcb3s0b-7">
          <mxGeometry relative="1" as="geometry" />
        </mxCell>
        <mxCell id="KCbMlfm2_40u_jcb3s0b-5" value="GENERATE NEW SOLUTION USING SELECTION, CROSSOVER AND MUTATION&amp;nbsp;" style="rounded=0;whiteSpace=wrap;html=1;fontFamily=Verdana;fontSize=13;" vertex="1" parent="WIyWlLk6GJQsqaUBKTNV-1">
          <mxGeometry x="20" y="380" width="170" height="80" as="geometry" />
        </mxCell>
        <mxCell id="KCbMlfm2_40u_jcb3s0b-31" style="edgeStyle=orthogonalEdgeStyle;shape=flexArrow;rounded=0;orthogonalLoop=1;jettySize=auto;html=1;exitX=0.5;exitY=1;exitDx=0;exitDy=0;entryX=0.5;entryY=0;entryDx=0;entryDy=0;strokeWidth=1;fontFamily=Verdana;fontSize=13;" edge="1" parent="WIyWlLk6GJQsqaUBKTNV-1" source="KCbMlfm2_40u_jcb3s0b-6" target="KCbMlfm2_40u_jcb3s0b-9">
          <mxGeometry relative="1" as="geometry" />
        </mxCell>
        <mxCell id="KCbMlfm2_40u_jcb3s0b-6" value="GENERATE NEW SOLUTION USING LEVY FLIGHT" style="rounded=0;whiteSpace=wrap;html=1;fontFamily=Verdana;fontSize=13;" vertex="1" parent="WIyWlLk6GJQsqaUBKTNV-1">
          <mxGeometry x="270" y="80" width="170" height="60" as="geometry" />
        </mxCell>
        <mxCell id="KCbMlfm2_40u_jcb3s0b-25" style="edgeStyle=orthogonalEdgeStyle;rounded=0;orthogonalLoop=1;jettySize=auto;html=1;exitX=1;exitY=0.5;exitDx=0;exitDy=0;entryX=0;entryY=0.5;entryDx=0;entryDy=0;fontFamily=Verdana;fontSize=13;" edge="1" parent="WIyWlLk6GJQsqaUBKTNV-1" source="KCbMlfm2_40u_jcb3s0b-7" target="KCbMlfm2_40u_jcb3s0b-6">
          <mxGeometry relative="1" as="geometry">
            <Array as="points">
              <mxPoint x="210" y="520" />
              <mxPoint x="210" y="110" />
            </Array>
          </mxGeometry>
        </mxCell>
        <mxCell id="KCbMlfm2_40u_jcb3s0b-7" value="EVALUATE THE FITNESS OF NEW SOLUTION" style="rounded=0;whiteSpace=wrap;html=1;fontFamily=Verdana;fontSize=13;" vertex="1" parent="WIyWlLk6GJQsqaUBKTNV-1">
          <mxGeometry x="20" y="490" width="170" height="60" as="geometry" />
        </mxCell>
        <mxCell id="KCbMlfm2_40u_jcb3s0b-32" style="edgeStyle=orthogonalEdgeStyle;shape=flexArrow;rounded=0;orthogonalLoop=1;jettySize=auto;html=1;exitX=0.5;exitY=1;exitDx=0;exitDy=0;entryX=0.5;entryY=0;entryDx=0;entryDy=0;strokeWidth=1;fontFamily=Verdana;fontSize=13;" edge="1" parent="WIyWlLk6GJQsqaUBKTNV-1" source="KCbMlfm2_40u_jcb3s0b-9" target="KCbMlfm2_40u_jcb3s0b-11">
          <mxGeometry relative="1" as="geometry" />
        </mxCell>
        <mxCell id="KCbMlfm2_40u_jcb3s0b-9" value="&lt;p style=&quot;line-height: 0.6; font-size: 13px;&quot;&gt;&lt;font style=&quot;font-size: 13px; background-color: initial;&quot;&gt;&lt;span style=&quot;font-size: 13px;&quot;&gt;ƒ&lt;/span&gt;&lt;/font&gt;&lt;span style=&quot;font-size: 13px; background-color: initial;&quot;&gt;(&amp;nbsp;&lt;/span&gt;&lt;span style=&quot;background-color: initial; font-size: 13px;&quot;&gt;&lt;font style=&quot;font-size: 13px;&quot;&gt;X&lt;/font&gt;&lt;/span&gt;&lt;span style=&quot;font-size: 13px; background-color: initial;&quot;&gt;­&amp;nbsp;&lt;/span&gt;&lt;sub style=&quot;font-size: 13px; background-color: initial;&quot;&gt;&lt;font style=&quot;font-size: 13px;&quot;&gt;NEW&amp;nbsp;&lt;/font&gt;&lt;/sub&gt;&lt;span style=&quot;font-size: 13px; background-color: initial;&quot;&gt;)&lt;br style=&quot;font-size: 13px;&quot;&gt;&amp;nbsp;&lt;/span&gt;&lt;br style=&quot;font-size: 13px;&quot;&gt;&lt;span style=&quot;font-size: 13px; background-color: initial;&quot;&gt;&amp;lt;&amp;nbsp;&amp;nbsp;&lt;/span&gt;&lt;br style=&quot;font-size: 13px;&quot;&gt;&lt;span style=&quot;font-size: 13px;&quot;&gt;&lt;font style=&quot;font-size: 13px;&quot;&gt;&lt;/font&gt;&lt;/span&gt;&lt;/p&gt;&lt;div style=&quot;font-size: 13px;&quot;&gt;&lt;font style=&quot;font-size: 13px;&quot;&gt;&lt;font style=&quot;background-color: initial; font-size: 13px;&quot;&gt;&lt;span style=&quot;font-size: 13px;&quot;&gt;ƒ&lt;/span&gt;&lt;/font&gt;&lt;span style=&quot;background-color: initial; font-size: 13px;&quot;&gt;(&amp;nbsp;&lt;/span&gt;&lt;span style=&quot;background-color: initial; font-size: 13px;&quot;&gt;&lt;font style=&quot;font-size: 13px;&quot;&gt;X&amp;nbsp;&lt;/font&gt;&lt;/span&gt;&lt;sub style=&quot;background-color: initial; font-size: 13px;&quot;&gt;new&amp;nbsp;&lt;/sub&gt;&lt;span style=&quot;background-color: initial; font-size: 13px;&quot;&gt;)&lt;/span&gt;&lt;/font&gt;&lt;/div&gt;&lt;p style=&quot;font-size: 13px;&quot;&gt;&lt;/p&gt;" style="rhombus;whiteSpace=wrap;html=1;align=center;fontFamily=Verdana;fontSize=13;" vertex="1" parent="WIyWlLk6GJQsqaUBKTNV-1">
          <mxGeometry x="270" y="180" width="170" height="110" as="geometry" />
        </mxCell>
        <mxCell id="KCbMlfm2_40u_jcb3s0b-11" value="&lt;font style=&quot;font-size: 13px;&quot;&gt;RePlace &lt;/font&gt;&lt;font style=&quot;font-size: 13px;&quot;&gt;X&amp;nbsp;&lt;/font&gt;&lt;font style=&quot;font-size: 9px;&quot;&gt;new&lt;/font&gt;&lt;font style=&quot;font-size: 13px;&quot;&gt;&amp;nbsp;&lt;br style=&quot;font-size: 13px;&quot;&gt;With &lt;/font&gt;&lt;font style=&quot;font-size: 13px;&quot;&gt;X&lt;/font&gt;&lt;font style=&quot;font-size: 13px;&quot;&gt;&amp;nbsp;&lt;/font&gt;&lt;font style=&quot;font-size: 9px;&quot;&gt;new&lt;/font&gt;&lt;font style=&quot;font-size: 13px;&quot;&gt; + 1 solution&lt;/font&gt;" style="rounded=0;whiteSpace=wrap;html=1;fontSize=13;fontFamily=Verdana;" vertex="1" parent="WIyWlLk6GJQsqaUBKTNV-1">
          <mxGeometry x="270" y="330" width="170" height="60" as="geometry" />
        </mxCell>
        <mxCell id="KCbMlfm2_40u_jcb3s0b-33" style="edgeStyle=orthogonalEdgeStyle;shape=flexArrow;rounded=0;orthogonalLoop=1;jettySize=auto;html=1;exitX=0.5;exitY=1;exitDx=0;exitDy=0;strokeWidth=1;fontFamily=Verdana;fontSize=13;" edge="1" parent="WIyWlLk6GJQsqaUBKTNV-1" source="KCbMlfm2_40u_jcb3s0b-12" target="KCbMlfm2_40u_jcb3s0b-14">
          <mxGeometry relative="1" as="geometry" />
        </mxCell>
        <mxCell id="KCbMlfm2_40u_jcb3s0b-12" value="&lt;font style=&quot;font-size: 13px;&quot;&gt;&lt;font style=&quot;font-size: 13px;&quot;&gt;ABANDON A FRACTION &lt;/font&gt;&lt;font style=&quot;font-size: 13px;&quot;&gt;P&lt;/font&gt;&lt;font style=&quot;font-size: 13px;&quot;&gt;&amp;nbsp;&lt;/font&gt;&lt;font style=&quot;font-size: 13px;&quot;&gt;a&amp;nbsp;OF WORST NESTS AND NEW ONES ARE BUILT&amp;nbsp;&lt;/font&gt;&lt;/font&gt;" style="rounded=0;whiteSpace=wrap;html=1;fontSize=13;fontFamily=Verdana;" vertex="1" parent="WIyWlLk6GJQsqaUBKTNV-1">
          <mxGeometry x="520" y="80" width="220" height="80" as="geometry" />
        </mxCell>
        <mxCell id="KCbMlfm2_40u_jcb3s0b-34" style="edgeStyle=orthogonalEdgeStyle;shape=flexArrow;rounded=0;orthogonalLoop=1;jettySize=auto;html=1;exitX=0.5;exitY=1;exitDx=0;exitDy=0;entryX=0.5;entryY=0;entryDx=0;entryDy=0;strokeWidth=1;fontFamily=Verdana;fontSize=13;" edge="1" parent="WIyWlLk6GJQsqaUBKTNV-1" source="KCbMlfm2_40u_jcb3s0b-14" target="KCbMlfm2_40u_jcb3s0b-16">
          <mxGeometry relative="1" as="geometry" />
        </mxCell>
        <mxCell id="KCbMlfm2_40u_jcb3s0b-14" value="&lt;font style=&quot;font-size: 13px;&quot;&gt;MEMORIZE AND FIND THE BEST SOLUTION (NESTS WITH QUALITY SOLUTIONS)&amp;nbsp;&lt;/font&gt;" style="rounded=0;whiteSpace=wrap;html=1;fontFamily=Verdana;fontSize=9;" vertex="1" parent="WIyWlLk6GJQsqaUBKTNV-1">
          <mxGeometry x="520" y="200" width="220" height="100" as="geometry" />
        </mxCell>
        <mxCell id="KCbMlfm2_40u_jcb3s0b-15" value="END" style="ellipse;whiteSpace=wrap;html=1;fontFamily=Verdana;fontSize=13;" vertex="1" parent="WIyWlLk6GJQsqaUBKTNV-1">
          <mxGeometry x="820" y="350" width="120" height="80" as="geometry" />
        </mxCell>
        <mxCell id="KCbMlfm2_40u_jcb3s0b-16" value="&lt;font style=&quot;font-size: 13px;&quot;&gt;RANK THE SOLUTION AND DETERMINE THE CURRENT BEST SOLUTION&amp;nbsp;&lt;/font&gt;" style="rounded=0;whiteSpace=wrap;html=1;fontFamily=Verdana;fontSize=13;" vertex="1" parent="WIyWlLk6GJQsqaUBKTNV-1">
          <mxGeometry x="520" y="340" width="220" height="90" as="geometry" />
        </mxCell>
        <mxCell id="KCbMlfm2_40u_jcb3s0b-36" value="" style="endArrow=classic;html=1;rounded=0;strokeWidth=1;fontFamily=Verdana;fontSize=13;entryX=0;entryY=0.5;entryDx=0;entryDy=0;" edge="1" parent="WIyWlLk6GJQsqaUBKTNV-1" target="KCbMlfm2_40u_jcb3s0b-9">
          <mxGeometry width="50" height="50" relative="1" as="geometry">
            <mxPoint x="240" y="600" as="sourcePoint" />
            <mxPoint x="360" y="410" as="targetPoint" />
            <Array as="points">
              <mxPoint x="240" y="235" />
            </Array>
          </mxGeometry>
        </mxCell>
        <mxCell id="KCbMlfm2_40u_jcb3s0b-37" value="" style="endArrow=classic;html=1;rounded=0;strokeWidth=1;fontFamily=Verdana;fontSize=13;entryX=0;entryY=0.5;entryDx=0;entryDy=0;exitX=1;exitY=0.5;exitDx=0;exitDy=0;" edge="1" parent="WIyWlLk6GJQsqaUBKTNV-1" source="KCbMlfm2_40u_jcb3s0b-11" target="KCbMlfm2_40u_jcb3s0b-12">
          <mxGeometry width="50" height="50" relative="1" as="geometry">
            <mxPoint x="480" y="360" as="sourcePoint" />
            <mxPoint x="340" y="330" as="targetPoint" />
            <Array as="points">
              <mxPoint x="480" y="360" />
              <mxPoint x="480" y="280" />
              <mxPoint x="480" y="120" />
            </Array>
          </mxGeometry>
        </mxCell>
        <mxCell id="KCbMlfm2_40u_jcb3s0b-38" value="" style="endArrow=classic;html=1;rounded=0;strokeWidth=1;fontFamily=Verdana;fontSize=13;shape=flexArrow;entryX=0;entryY=0.5;entryDx=0;entryDy=0;" edge="1" parent="WIyWlLk6GJQsqaUBKTNV-1" target="KCbMlfm2_40u_jcb3s0b-15">
          <mxGeometry width="50" height="50" relative="1" as="geometry">
            <mxPoint x="760" y="390" as="sourcePoint" />
            <mxPoint x="810" y="350" as="targetPoint" />
          </mxGeometry>
        </mxCell>
      </root>
    </mxGraphModel>
  </diagram>
</mxfile>
